<?xml version="1.0" encoding="utf-8"?>
<!-- Generator: Adobe Illustrator 21.1.0, SVG Export Plug-In . SVG Version: 6.00 Build 0)  -->
<svg version="1.1" id="Capa_1" xmlns="http://www.w3.org/2000/svg" xmlns:xlink="http://www.w3.org/1999/xlink" x="0px" y="0px"
	 viewBox="0 0 405.5 96.5" style="enable-background:new 0 0 405.5 96.5;" xml:space="preserve">
<style type="text/css">
	.st0{fill:none;stroke:#000000;stroke-width:2;stroke-miterlimit:10;}
	.st1{fill:#FFFFFF;stroke:#000000;stroke-width:2;stroke-miterlimit:10;}
	.st2{font-family:'Calibri-Bold';}
	.st3{font-size:54.598px;}
	.st4{fill:#FFFFFF;}
</style>
<path class="st0" d="M31.8,56.4C10,48.4,19.3,29.2,19.3,29.2l7.8,5.3c0.5,4.1,2.3,8.8,7.2,12.2l7,4.3l-1.2,7.2L31.8,56.4z"/>
<path class="st0" d="M100.9,56.4c21.8-8.1,12.5-27.2,12.5-27.2l-7.8,5.3c-0.5,4.1-2.3,8.8-7.2,12.2l-7,4.3l1.2,7.2L100.9,56.4z"/>
<path class="st0" d="M39.7,65.4c0.9,0,1.6-0.7,1.6-1.6c0-0.9-0.7-1.6-1.6-1.6H23.8c-5.2,0-9.5-4.2-9.5-9.5c0-0.9-0.7-1.6-1.6-1.6
	c-0.9,0-1.6,0.7-1.6,1.6c0,7,5.7,12.7,12.7,12.7H39.7z"/>
<path class="st0" d="M119.9,51.1c-0.9,0-1.6,0.7-1.6,1.6c0,5.2-4.2,9.5-9.5,9.5H93c-0.9,0-1.6,0.7-1.6,1.6s0.7,1.6,1.6,1.6h15.8
	c7,0,12.7-5.7,12.7-12.7C121.6,51.8,120.8,51.1,119.9,51.1z"/>
<path class="st0" d="M103.9,69.5H88.1c-0.9,0-1.6,0.7-1.6,1.6c0,0.9,0.7,1.6,1.6,1.6h15.8c5.2,0,9.5,4.2,9.5,9.5
	c0,0.9,0.7,1.6,1.6,1.6c0.9,0,1.6-0.7,1.6-1.6C116.6,75.2,110.9,69.5,103.9,69.5L103.9,69.5z"/>
<path class="st0" d="M44.6,72.8c0.9,0,1.6-0.7,1.6-1.6c0-0.9-0.7-1.6-1.6-1.6H28.8c-7,0-12.7,5.7-12.7,12.7c0,0.9,0.7,1.6,1.6,1.6
	c0.9,0,1.6-0.7,1.6-1.6c0-5.2,4.2-9.5,9.5-9.5H44.6z"/>
<path class="st0" d="M49.6,72.1l-12.7,4.2c-5,1.6-8.4,6.2-8.4,11.5v2.8c0,0.9,0.7,1.6,1.6,1.6s1.6-0.7,1.6-1.6v-2.8
	c0-3.9,2.5-7.2,6.2-8.4l12.8-4.2c0.9-0.3,1.3-1.2,1-2.1C51.4,72.2,50.5,71.8,49.6,72.1z"/>
<path class="st0" d="M95.8,76.3l-13.5-4.2c-0.9-0.3-1.8,0.2-2,1.1c-0.3,0.9,0.2,1.8,1.1,2l13.5,4.2c3.7,1.2,6.1,4.5,6.1,8.4v2.8
	c0,0.9,0.7,1.6,1.6,1.6c0.9,0,1.6-0.7,1.6-1.6v-2.8C104.2,82.5,100.8,77.9,95.8,76.3z"/>
<path class="st0" d="M47.4,12.3l-0.8,1.8l-1.2,3.1L43.3,23c-2.5,6.5-8.9,12.9-18.3,13.4v-4.2l3.1-14l3.5-0.3
	c2.8-0.8,5.2-2.4,7.3-4.1c1.8-1.5,3.2-3,4.1-4.2c0.5-0.6,1.3-0.9,2-0.9c0.5,0,0.9,0.1,1.3,0.4C47.5,9.7,48,11.1,47.4,12.3L47.4,12.3
	z"/>
<path class="st0" d="M31.6,11c-0.6,2.1-0.8,4.5,0,6.9c1.9,5.4-2,13.3-5.5,17.9c-0.3,0.4-0.7,0.6-1.2,0.7c-0.1,0-0.2,0-0.2,0
	c-0.4,0-0.8-0.1-1.1-0.4c-7.1-5.7-6.4-18.7-0.7-25.8l2.4-2.9l2.9-3.5c1-1.2,2.7-1.5,3.9-0.7c1.3,0.9,1.7,2.6,1,3.9
	C32.6,8.3,32,9.6,31.6,11L31.6,11z"/>
<path class="st0" d="M33.2,7.2C32.6,8.3,32,9.6,31.6,11h0l-6.2-3.6l2.9-3.5c1-1.2,2.7-1.5,3.9-0.7C33.5,4.1,33.9,5.8,33.2,7.2z"/>
<path class="st0" d="M47.4,12.3l-0.8,1.8l-1.2,3.1l-0.2-0.1l-6.2-3.4l-0.2-0.1c1.8-1.5,3.2-3,4.1-4.2c0.5-0.6,1.3-0.9,2-0.9
	c0.5,0,0.9,0.1,1.3,0.4C47.5,9.7,48,11.1,47.4,12.3L47.4,12.3z"/>
<path class="st0" d="M85.3,12.3l0.8,1.8l1.2,3.1l2.2,5.7c2.5,6.5,8.9,12.9,18.3,13.4v-4.2l-3.1-14l-3.5-0.3
	c-2.8-0.8-5.2-2.4-7.3-4.1c-1.8-1.5-3.2-3-4.1-4.2c-0.5-0.6-1.3-0.9-2-0.9c-0.5,0-0.9,0.1-1.3,0.4C85.2,9.7,84.7,11.1,85.3,12.3
	L85.3,12.3z"/>
<path class="st0" d="M101.1,11c0.6,2.1,0.8,4.5,0,6.9c-1.9,5.4,2,13.3,5.5,17.9c0.3,0.4,0.7,0.6,1.2,0.7c0.1,0,0.2,0,0.2,0
	c0.4,0,0.8-0.1,1.1-0.4c7.1-5.7,6.4-18.7,0.7-25.8l-2.4-2.9l-2.9-3.5c-1-1.2-2.7-1.5-3.9-0.7c-1.3,0.9-1.7,2.6-1,3.9
	C100.1,8.3,100.7,9.6,101.1,11L101.1,11z"/>
<path class="st0" d="M99.5,7.2c0.6,1.1,1.2,2.4,1.6,3.8h0l6.2-3.6l-2.9-3.5c-1-1.2-2.7-1.5-3.9-0.7C99.1,4.1,98.7,5.8,99.5,7.2
	L99.5,7.2z"/>
<path class="st0" d="M85.3,12.3l0.8,1.8l1.2,3.1l0.2-0.1l6.2-3.4l0.2-0.1c-1.8-1.5-3.2-3-4.1-4.2c-0.5-0.6-1.3-0.9-2-0.9
	c-0.5,0-0.9,0.1-1.3,0.4C85.2,9.7,84.7,11.1,85.3,12.3L85.3,12.3z"/>
<path class="st1" d="M80.3,76.7H52.4c-11.1,0-20.3-9.1-20.3-20.3s9.1-20.3,20.3-20.3h27.8c11.1,0,20.3,9.1,20.3,20.3
	C100.5,67.6,91.4,76.7,80.3,76.7z"/>
<text transform="matrix(1 0 0 1 133.6377 69.9936)" class="st2 st3">TAOHILEN</text>
<path class="st4" d="M96.8,68c-0.7,1-1.4,1.9-2.3,2.7c-3.7,3.7-8.7,6-14.3,6H52.4c-11.1,0-20.3-9.1-20.3-20.3c0-5.6,2.3-10.6,6-14.3
	c1.8-1.8,3.8-3.2,6.1-4.2c-2.3,3.3-3.7,7.3-3.7,11.6c0,11.1,9.1,20.3,20.3,20.3h27.8C91.6,69.8,94.3,69.1,96.8,68z"/>
<path class="st0" d="M52.3,41c-1.7,0-3.2-1.4-3.2-3.2v-7.4c0-1.7,1.4-3.2,3.2-3.2s3.2,1.4,3.2,3.2v7.4C55.5,39.6,54,41,52.3,41z"/>
<path class="st0" d="M80.4,41c-1.7,0-3.2-1.4-3.2-3.2v-7.4c0-1.7,1.4-3.2,3.2-3.2c1.7,0,3.2,1.4,3.2,3.2v7.4
	C83.5,39.6,82.1,41,80.4,41z"/>
</svg>
