<?xml version="1.0" encoding="utf-8"?>
<!-- Generator: Adobe Illustrator 21.1.0, SVG Export Plug-In . SVG Version: 6.00 Build 0)  -->
<svg version="1.1" id="Capa_1" xmlns="http://www.w3.org/2000/svg" xmlns:xlink="http://www.w3.org/1999/xlink" x="0px" y="0px"
	 viewBox="0 0 512 512" style="enable-background:new 0 0 512 512;" xml:space="preserve">
<style type="text/css">
	.st0{fill:none;stroke:#FFFFFF;stroke-width:5;stroke-miterlimit:10;}
	.st1{fill:#FFFFFF;}
	.st2{font-family:'Roboto-BoldItalic';}
	.st3{font-size:87.033px;}
</style>
<g>
	<path class="st0" d="M130.7,218.7c-79-29.2-45.5-98.7-45.5-98.7l28.1,19.3c1.8,14.8,8.3,31.8,26.2,44.4l25.5,15.6l-4.2,26.1
		L130.7,218.7z"/>
	<path class="st0" d="M381.3,218.7c79-29.2,45.5-98.7,45.5-98.7l-28.1,19.3c-1.8,14.8-8.3,31.8-26.2,44.4L347,199.3l4.2,26.1
		L381.3,218.7z"/>
	<path class="st0" d="M159.2,246.5c3.3,0,5.9-2.7,5.9-5.9c0-3.3-2.7-5.9-5.9-5.9h-57.4c-18.9,0-34.4-15.4-34.4-34.4
		c0-3.3-2.7-5.9-5.9-5.9s-5.9,2.7-5.9,5.9c0,25.5,20.7,46.2,46.2,46.2L159.2,246.5L159.2,246.5z"/>
	<path class="st0" d="M450.5,194.3c-3.3,0-5.9,2.7-5.9,5.9c0,18.9-15.4,34.4-34.4,34.4h-57.4c-3.3,0-5.9,2.7-5.9,5.9
		s2.7,5.9,5.9,5.9h57.4c25.5,0,46.2-20.7,46.2-46.2C456.4,197,453.8,194.3,450.5,194.3z"/>
	<path class="st0" d="M392.2,258.1h-57.4c-3.3,0-5.9,2.7-5.9,5.9c0,3.3,2.7,5.9,5.9,5.9h57.4c18.9,0,34.4,15.4,34.4,34.4
		c0,3.3,2.7,5.9,5.9,5.9s5.9-2.7,5.9-5.9C438.4,278.9,417.7,258.1,392.2,258.1L392.2,258.1z"/>
	<path class="st0" d="M177.2,270c3.3,0,5.9-2.7,5.9-5.9c0-3.3-2.7-5.9-5.9-5.9h-57.4c-25.5,0-46.2,20.7-46.2,46.2
		c0,3.3,2.7,5.9,5.9,5.9s5.9-2.7,5.9-5.9c0-18.9,15.4-34.4,34.4-34.4L177.2,270L177.2,270z"/>
	<path class="st0" d="M199.4,271.5l-46.2,15.3c-18.3,5.8-30.5,22.6-30.5,41.7v10.2c0,3.3,2.7,5.9,5.9,5.9c3.3,0,5.9-2.7,5.9-5.9
		v-10.2c0-14,8.9-26.2,22.3-30.4l46.3-15.3c3.1-1,4.8-4.4,3.8-7.5C205.9,272.1,202.5,270.4,199.4,271.5z"/>
	<path class="st0" d="M358.8,287.8l-48.9-15.3c-3.1-1-6.4,0.8-7.4,3.9s0.8,6.4,3.9,7.4l48.9,15.3c13.3,4.2,22.3,16.5,22.3,30.4v10.2
		c0,3.3,2.7,5.9,5.9,5.9s5.9-2.7,5.9-5.9v-10.2C389.4,310.3,377.1,293.6,358.8,287.8z"/>
	<path class="st0" d="M187.3,58.8l-3,6.6L180,76.8l-7.8,20.7c-8.9,23.6-32.2,46.8-66.3,48.8V131l11.4-51l12.7-1.1
		c10-3,19-8.8,26.4-15c6.4-5.4,11.6-11,15-15.2c1.9-2.2,4.6-3.4,7.3-3.4c1.7,0,3.4,0.4,4.9,1.4C187.7,49.2,189.3,54.4,187.3,58.8
		L187.3,58.8z"/>
	<path class="st0" d="M129.8,53.8c-2.2,7.8-2.9,16.5,0.1,25.1c6.8,19.5-7.3,48.4-19.8,64.8c-1.1,1.4-2.6,2.3-4.3,2.5
		c-0.3,0-0.6,0.1-0.8,0.1c-1.4,0-2.8-0.5-4-1.4c-25.7-20.6-23.2-68-2.5-93.6l8.7-10.5l10.6-12.7c3.5-4.2,9.7-5.4,14.3-2.4
		c4.8,3.1,6.3,9.3,3.5,14.3C133.5,43.9,131.3,48.7,129.8,53.8L129.8,53.8z"/>
	<path class="st0" d="M135.7,40c-2.2,4-4.4,8.7-5.8,13.9l0,0l-22.6-13l10.6-12.7c3.5-4.2,9.7-5.4,14.3-2.4
		C136.9,28.7,138.4,35,135.7,40z"/>
	<path class="st0" d="M187.3,58.8l-3,6.6L180,76.8l-0.7-0.3L157,64.2l-0.6-0.3c6.4-5.4,11.6-11,15-15.2c1.9-2.2,4.6-3.4,7.3-3.4
		c1.7,0,3.4,0.4,4.9,1.4C187.7,49.2,189.3,54.4,187.3,58.8L187.3,58.8z"/>
	<path class="st0" d="M324.7,58.8l3,6.6l4.3,11.4l7.8,20.7c8.9,23.6,32.2,46.8,66.3,48.8V131l-11.4-51L382,78.9
		c-10-3-19-8.8-26.4-15c-6.4-5.4-11.6-11-15-15.2c-1.9-2.2-4.6-3.4-7.3-3.4c-1.7,0-3.4,0.4-4.9,1.4
		C324.3,49.2,322.7,54.4,324.7,58.8L324.7,58.8z"/>
	<path class="st0" d="M382.2,53.8c2.2,7.8,2.9,16.5-0.1,25.1c-6.8,19.5,7.3,48.4,19.8,64.8c1.1,1.4,2.6,2.3,4.3,2.5
		c0.3,0,0.6,0.1,0.8,0.1c1.4,0,2.8-0.5,4-1.4c25.7-20.6,23.2-68,2.5-93.6l-8.7-10.5l-10.6-12.7c-3.5-4.2-9.7-5.4-14.3-2.4
		c-4.8,3.1-6.3,9.3-3.5,14.3C378.5,43.9,380.7,48.7,382.2,53.8L382.2,53.8z"/>
	<path class="st0" d="M376.3,40c2.2,4,4.4,8.7,5.8,13.9l0,0l22.6-13l-10.6-12.7c-3.5-4.2-9.7-5.4-14.3-2.4
		C375.1,28.7,373.6,35,376.3,40L376.3,40z"/>
	<path class="st0" d="M324.7,58.8l3,6.6l4.3,11.4l0.7-0.3L355,64.2l0.6-0.3c-6.4-5.4-11.6-11-15-15.2c-1.9-2.2-4.6-3.4-7.3-3.4
		c-1.7,0-3.4,0.4-4.9,1.4C324.3,49.2,322.7,54.4,324.7,58.8L324.7,58.8z"/>
	<path class="st0" d="M205,162.7c-6.3,0-11.5-5.2-11.5-11.5v-26.9c0-6.3,5.2-11.5,11.5-11.5s11.5,5.2,11.5,11.5v26.9
		C216.5,157.6,211.3,162.7,205,162.7z"/>
	<path class="st0" d="M307,162.7c-6.3,0-11.5-5.2-11.5-11.5v-26.9c0-6.3,5.2-11.5,11.5-11.5s11.5,5.2,11.5,11.5v26.9
		C318.4,157.6,313.3,162.7,307,162.7z"/>
	<path class="st0" d="M293.6,273.4h-75.1c-30,0-54.7-24.6-54.7-54.7s24.6-54.7,54.7-54.7h75.1c30,0,54.7,24.6,54.7,54.7
		S323.7,273.4,293.6,273.4z"/>
</g>
<text transform="matrix(1 0 0 1 34.833 439.6016)" class="st1 st2 st3">TAOHILEN</text>
</svg>
