<svg id="Capa_1" data-name="Capa 1" xmlns="http://www.w3.org/2000/svg" viewBox="0 0 492.62 469.52"><defs><style>.cls-1{font-size:93.43px;font-family:Tahoma-Bold, Tahoma;font-weight:700;}</style></defs><title>fish_black</title><path d="M365.59,185.05a9.87,9.87,0,1,0-9.83,9.83A9.83,9.83,0,0,0,365.59,185.05Z" transform="translate(-9.69 -30.31)"/><path d="M423.72,168.17a9.82,9.82,0,0,0-1.42-6.82c-1.85-2.89-4.28-3.75-7.71-5.22-41.26-17.67-93.39-13.76-137.19-5A488.71,488.71,0,0,0,200,173.21c-24.37,9.36-46.63,5.46-66.16-11.59a106.09,106.09,0,0,1-21.28-26.28c13.23-21.82,32-33.33,55.92-34.23a92.61,92.61,0,0,1,36.37,6.36,9.85,9.85,0,0,0,13.62-7.14c4.66-24.19,1.64-42.8-9-55.3-12-14.14-29.3-14.72-32.06-14.72a9.84,9.84,0,0,0-5.14,1.4c-2.67,1.6-65.49,39.92-80.51,101.11v0C79,185.09,98.87,247.35,168.42,293.26c13.86,9.16,25.94,14.59,45.76,19-5.63,10.12-15.37,21.73-38.56,26.95a9.83,9.83,0,0,0-1.14,19c32.61,11.37,65.93,11.72,93.68-8.15,15.63-11.19,25.15-25.89,30.28-35.89,74.2-14.37,113.81-71.27,125.28-146ZM137.65,87.85A208.75,208.75,0,0,1,180,50.16a23.11,23.11,0,0,1,14.7,7.77c4.93,5.93,7,15.31,6.06,27.47C180,79.78,157.65,79.62,137.65,87.85ZM403,172.65c-9.17,49-32,91.27-76.82,112.1-18-10.74-29.57-24.65-34.32-41.41-8.33-29.37,5.26-61.23,13.7-77C336.92,162,373.32,161.27,403,172.65ZM209.69,346c14.08-9.59,20.66-21.63,24.78-30.23a216.25,216.25,0,0,0,39.12,1.41C262.45,332.51,242.68,348.75,209.69,346ZM207.25,191.5a482.22,482.22,0,0,1,74.59-21.19c-19.74,45.7-17.6,91.72,21.5,122.57-18,4.66-37.29,5.83-56.15,4.44-15.73-1.18-34.12-4.41-48.85-10.24a101.62,101.62,0,0,1-19.06-10.23c-59-39-70.89-84.28-71.17-113.66,28.16,33.93,64.51,42.17,99.16,28.31Z" transform="translate(-9.69 -30.31)"/><text class="cls-1" transform="translate(0 430.37)">TAOHILEN</text></svg>