<?xml version="1.0" encoding="utf-8"?>
<!-- Generator: Adobe Illustrator 21.1.0, SVG Export Plug-In . SVG Version: 6.00 Build 0)  -->
<svg version="1.1" id="Capa_1" xmlns="http://www.w3.org/2000/svg" xmlns:xlink="http://www.w3.org/1999/xlink" x="0px" y="0px"
	 viewBox="0 0 512 512" style="enable-background:new 0 0 512 512;" xml:space="preserve">
<style type="text/css">
	.st0{fill:#FFFFFF;}
	.st1{font-family:'Tahoma-Bold';}
	.st2{font-size:93.4323px;}
</style>
<g>
	<path class="st0" d="M365.6,185.1c0-5.4-4.4-9.8-9.8-9.8c-5.7,0-9.9,4.5-9.9,9.8c0,5.3,4.3,9.8,9.9,9.8
		C361.2,194.9,365.6,190.5,365.6,185.1z"/>
	<path class="st0" d="M423.7,168.2c0.4-2.4-0.1-4.8-1.4-6.8c-1.8-2.9-4.3-3.7-7.7-5.2c-41.3-17.7-93.4-13.8-137.2-5
		c-42.7,8.5-75.3,21.3-77.4,22.1c-24.4,9.4-46.6,5.5-66.2-11.6c-10.7-9.3-17.9-20.3-21.3-26.3c13.2-21.8,32-33.3,55.9-34.2
		c19.9-0.7,36.2,6.3,36.4,6.4c5.8,2.5,12.4-1,13.6-7.1c4.7-24.2,1.6-42.8-9-55.3c-12-14.1-29.3-14.7-32.1-14.7
		c-1.9,0-3.6,0.5-5.1,1.4c-2.7,1.6-65.5,39.9-80.5,101.1c0,0,0,0,0,0c-12.8,52.3,7.1,114.5,76.6,160.4c13.9,9.2,25.9,14.6,45.8,19
		c-5.6,10.1-15.4,21.7-38.6,26.9c-9.6,1.9-10.9,15.6-1.1,19c32.6,11.4,65.9,11.7,93.7-8.2c15.6-11.2,25.1-25.9,30.3-35.9
		C372.6,299.8,412.3,242.9,423.7,168.2L423.7,168.2z M137.6,87.8C154.4,68,173.3,54.6,180,50.2c3.5,0.5,10,2.1,14.7,7.8
		c4.9,5.9,7,15.3,6.1,27.5C180,79.8,157.6,79.6,137.6,87.8z M403,172.6c-9.2,49-32,91.3-76.8,112.1c-18-10.7-29.6-24.7-34.3-41.4
		c-8.3-29.4,5.3-61.2,13.7-77C336.9,162,373.3,161.3,403,172.6z M209.7,346c14.1-9.6,20.7-21.6,24.8-30.2
		c10.8,1.4,24.3,2.3,39.1,1.4C262.5,332.5,242.7,348.8,209.7,346z M207.2,191.5c0.6-0.3,33.1-13,74.6-21.2
		c-19.7,45.7-17.6,91.7,21.5,122.6c-18,4.7-37.3,5.8-56.2,4.4c-15.7-1.2-34.1-4.4-48.8-10.2c-6.2-2.4-12-5.6-19.1-10.2
		c-59-39-70.9-84.3-71.2-113.7C136.2,197.1,172.6,205.4,207.2,191.5L207.2,191.5z"/>
</g>
<text transform="matrix(1 0 0 1 9.6909 460.6816)" class="st0 st1 st2">TAOHILEN</text>
</svg>
