<svg id="Capa_1" enable-background="new 0 0 510 510" height="512" viewBox="0 0 510 510" width="512" xmlns="http://www.w3.org/2000/svg"><g id="XMLID_3516_"><path id="XMLID_3589_" d="m199 0c-4.5 14.5-32.9 105.4-37.5 120l48.5 15 45-15 15-45-15-75c-17.8 0-38.2 0-56 0z" fill="#ff6c6c"/><path id="XMLID_3586_" d="m304.5 0c-15.7 0-33.7 0-49.5 0v120l30 15 58.6-15c-4.8-14.6-34.4-105.4-39.1-120z" fill="#f37"/><path id="XMLID_3583_" d="m161.5 120c-3.4 10.9-24.7 79-28.1 90l61.7 15 60-15 15-45-15-45c-11.5 0-82.2 0-93.6 0z" fill="#fff5f5"/><path id="XMLID_3578_" d="m343.6 120c-10.7 0-77.8 0-88.6 0v90l45 15 72.9-15c-1.6-5-27.7-85-29.3-90z" fill="#ece6f2"/><path id="XMLID_3570_" d="m105.2 300c-3.4 10.9-24.7 79-28.1 90l102.9 15 75-15 15-45-15-45-75-15z" fill="#fff5f5"/><path id="XMLID_3567_" d="m402.2 300-87.2-15-60 15v90l60 15 116.6-15c-3.6-10.9-25.8-79-29.4-90z" fill="#ece6f2"/><path id="XMLID_3561_" d="m77.1 390c-3.4 10.9-24.7 79-28.1 90l103 15 103-15 15-45-15-45c-9.9 0-168 0-177.9 0z" fill="#ff6c6c"/><path id="XMLID_3558_" d="m431.6 390c-9.8 0-166.7 0-176.6 0v90l102.9 15 102.9-15c-3.5-10.9-25.7-79-29.2-90z" fill="#f37"/><path id="XMLID_3555_" d="m133.3 210c-3.4 10.9-24.7 79-28.1 90h149.8l15-45-15-45c-14.8 0-106.8 0-121.7 0z" fill="#ff6c6c"/><path id="XMLID_3542_" d="m372.9 210c-14.3 0-103.5 0-117.9 0v90h147.2c-1.6-5-27.7-85-29.3-90z" fill="#f37"/><g id="XMLID_3523_"><path id="XMLID_3538_" d="m0 480v30h255l15-15-15-15c-7.2 0-247.8 0-255 0z" fill="#404a80"/><path id="XMLID_1_" d="m255 480v30h255c0-10.5 0-19.5 0-30-7.2 0-247.8 0-255 0z" fill="#283366"/></g></g></svg>